<?xml version="1.0" encoding="UTF-8"?>
<svg width="60" height="24" viewBox="0 0 60 24" xmlns="http://www.w3.org/2000/svg">
  <!-- HRLA Text for Navigation -->
  <g fill="#FFFFFF">
    <!-- H -->
    <rect x="2" y="4" width="2" height="16" />
    <rect x="2" y="11" width="6" height="2" />
    <rect x="6" y="4" width="2" height="16" />
    
    <!-- R -->
    <rect x="12" y="4" width="2" height="16" />
    <rect x="12" y="4" width="6" height="2" />
    <rect x="16" y="6" width="2" height="3" />
    <rect x="12" y="11" width="6" height="2" />
    <path d="M16 13 L18 20" stroke="#FFFFFF" stroke-width="2"/>
    
    <!-- L -->
    <rect x="22" y="4" width="2" height="16" />
    <rect x="22" y="18" width="6" height="2" />
    
    <!-- A -->
    <path d="M32 20 L35 4 L38 20" stroke="#FFFFFF" stroke-width="2" fill="none"/>
    <rect x="34" y="11" width="2" height="2" />
  </g>
  
  <!-- Small robot icon -->
  <g transform="translate(45, 12)">
    <circle cx="0" cy="0" r="6" fill="#E8F4FD" stroke="#4A90E2" stroke-width="1"/>
    <circle cx="-2" cy="-1" r="1" fill="#2E5BBA"/>
    <circle cx="2" cy="-1" r="1" fill="#2E5BBA"/>
    <path d="M-2 2 Q0 3 2 2" stroke="#2E5BBA" stroke-width="0.5" fill="none"/>
    <line x1="0" y1="-6" x2="0" y2="-8" stroke="#4A90E2" stroke-width="0.5"/>
    <circle cx="0" cy="-9" r="0.5" fill="#7DD3FC"/>
  </g>
</svg>